<?xml version="1.0" encoding="utf-8"?>
<!-- Generator: Adobe Illustrator 23.0.5, SVG Export Plug-In . SVG Version: 6.00 Build 0)  -->
<svg version="1.1" id="Layer_1" xmlns="http://www.w3.org/2000/svg" xmlns:xlink="http://www.w3.org/1999/xlink" x="0px" y="0px"
	 viewBox="0 0 50 29" style="enable-background:new 0 0 50 29;" xml:space="preserve">
<style type="text/css">
	.st0{fill:#EFECD0;}
	.st1{fill:none;}
</style>
<path class="st0" d="M30.3,15.8L20.1,5.6c-0.4-0.3-0.9,0-0.9,0.4v13.9c0,0.3,0.2,0.6,0.6,0.6c0.1,0,0.3-0.1,0.4-0.1l2.8-2.5l2.3,5.4
	c0.1,0.1,0.1,0.1,0.2,0.2c0.1,0,0.1,0,0.1,0c0.1,0,0.1,0,0.1,0l2.4-1c0.2-0.1,0.3-0.3,0.2-0.5l-2.2-5.2H30c0.3,0,0.6-0.2,0.6-0.6
	C30.4,16.1,30.4,16,30.3,15.8z"/>
<rect class="st1" width="50" height="29"/>
</svg>
