<?xml version="1.0" encoding="utf-8"?>
<!-- Generator: Adobe Illustrator 23.0.5, SVG Export Plug-In . SVG Version: 6.00 Build 0)  -->
<svg version="1.1" id="Layer_1" xmlns="http://www.w3.org/2000/svg" xmlns:xlink="http://www.w3.org/1999/xlink" x="0px" y="0px"
	 viewBox="0 0 50 29" style="enable-background:new 0 0 50 29;" xml:space="preserve">
<style type="text/css">
	.st0{fill:none;}
	.st1{fill:#EFECD0;}
</style>
<rect class="st0" width="50" height="29"/>
<g>
	<circle class="st1" cx="33" cy="9.9" r="1.9"/>
	<circle class="st1" cx="17" cy="9.9" r="1.9"/>
	<circle class="st1" cx="18.7" cy="19.1" r="1.9"/>
	<circle class="st1" cx="31.5" cy="19.1" r="1.9"/>
	<circle class="st1" cx="25" cy="9.9" r="1.9"/>
	<rect x="18.1" y="8.8" class="st1" width="13.8" height="1.9"/>
	<path class="st1" d="M32.5,19.4h-2.3c0-3.9-2.3-7-5.2-7c-2.9,0-5.2,3.1-5.2,7h-2.3c0-5.3,3.4-9.7,7.5-9.7
		C29.2,9.8,32.5,14.1,32.5,19.4z"/>
	<path class="st0" d="M17.7,18.1c0-4.6,3.3-8.3,7.3-8.3s7.3,3.7,7.3,8.3"/>
</g>
</svg>
