<?xml version="1.0" encoding="utf-8"?>
<!-- Generator: Adobe Illustrator 23.0.5, SVG Export Plug-In . SVG Version: 6.00 Build 0)  -->
<svg version="1.1" id="Layer_1" xmlns="http://www.w3.org/2000/svg" xmlns:xlink="http://www.w3.org/1999/xlink" x="0px" y="0px"
	 viewBox="0 0 50 29" style="enable-background:new 0 0 50 29;" xml:space="preserve">
<style type="text/css">
	.st0{fill:#EFECD0;}
	.st1{fill:none;}
</style>
<g>
	<path class="st0" d="M29.7,13.6L29.7,13.6l-3.8-3.8c0,0-4.6,4.6-6.9,6.9c-0.2,0.3-0.5,0.7-0.6,1.1c-0.4,1.1-0.7,2.3-1,3.4
		c-0.1,0.3-0.1,0.5,0.2,0.8c0.2,0.2,0.5,0.2,0.8,0.2c1.1-0.3,2.1-0.6,3.2-0.9c0.5-0.2,1.1-0.5,1.4-0.9
		C25.2,18.1,29.7,13.6,29.7,13.6L29.7,13.6z"/>
	<path class="st0" d="M32,8.9l-1.3-1.3c-0.7-0.7-1.8-0.7-2.5,0L26.7,9l3.8,3.8l1.5-1.5C32.7,10.7,32.7,9.5,32,8.9z"/>
</g>
<rect class="st1" width="50" height="29"/>
</svg>
