<?xml version="1.0" encoding="utf-8"?>
<!-- Generator: Adobe Illustrator 23.0.5, SVG Export Plug-In . SVG Version: 6.00 Build 0)  -->
<svg version="1.1" id="Layer_1" xmlns="http://www.w3.org/2000/svg" xmlns:xlink="http://www.w3.org/1999/xlink" x="0px" y="0px"
	 viewBox="0 0 1894 257" style="enable-background:new 0 0 1894 257;" xml:space="preserve">
<style type="text/css">
	.st0{fill:#FEF5EC;}
	.st1{fill:#87E64B;}
</style>
<g>
	<path class="st0" d="M293.8,50.8c38.4,0,75.9,22.6,75.9,73c0,4-0.2,10.2-0.7,14.6c-0.1,1-1,1.8-2,1.8H259.4
		c3.1,18,15.8,29.8,35.5,29.8c13.1,0,21.5-7.2,26-15.9c0.6-1.1,1.8-1.7,3-1.4l40.2,8.8c1.2,0.3,1.9,1.6,1.4,2.7
		c-9.4,21.3-30.8,42.4-70.9,42.4c-52.7,0-80.7-34.4-80.7-77.9C213.9,85.2,243.1,50.8,293.8,50.8L293.8,50.8z M324.7,112.7
		c-2-17.2-13.5-26.3-30.1-26.3c-21.8,0-30.9,11.2-34.4,26.3H324.7z"/>
	<path class="st0" d="M383.4,200V57.4c0-1.1,0.9-2,2-2h41.9c1.1,0,2,0.9,2,2v16.9c10-15.8,24.9-23.5,44.1-23.5
		c28.1,0,52.1,19.2,52.1,62.1V200c0,1.1-0.9,2-2,2h-41.9c-1.1,0-2-0.9-2-2v-80.5c0-19.2-10-29.8-24.6-29.8
		c-15.8,0-25.8,10.3-25.8,33.8V200c0,1.1-0.9,2-2,2h-41.9C384.3,202,383.4,201.1,383.4,200L383.4,200z"/>
	<path class="st0" d="M528.2,55.4h44.4c0.9,0,1.6,0.6,1.9,1.4l33.4,110.6l33.4-110.6c0.3-0.8,1-1.4,1.9-1.4h44.4
		c1.4,0,2.3,1.3,1.8,2.6l-51.1,142.1c-0.4,1.1-1.4,1.8-2.6,1.8H580c-1.2,0-2.2-0.7-2.6-1.8L526.4,58
		C525.9,56.8,526.8,55.4,528.2,55.4L528.2,55.4z"/>
	<path class="st0" d="M786.5,200v-22.4c-7.2,14.9-23.2,28.9-48.1,28.9c-28.9,0-50.4-18.3-50.4-44.1c0-27.2,18-47.5,57.5-47.5h22.9
		c12.6,0,16-9.2,14.9-15.2C781.7,89.5,772.5,84,759.6,84c-16.3,0-26.1,9-27.4,21.4c-0.1,1.1-1.2,1.9-2.3,1.8l-38.8-6.5
		c-1.1-0.2-1.8-1.2-1.6-2.3c6.3-33.8,38.4-47.6,71.3-47.6s69.3,8,69.3,68.7V200c0,1.1-0.9,2-2,2h-39.6
		C787.5,202,786.6,201.1,786.5,200L786.5,200z M751.9,173.4c18.3,0,30.9-13.7,32.3-30.9h-27.8c-16.9,0-22.9,6.9-22.6,16.3
		C734.2,168.8,742.2,173.4,751.9,173.4L751.9,173.4z"/>
	<path class="st0" d="M836.9,90.1V57.4c0-1.1,0.9-2,2-2h16.3c7.6,0,13.7-6.2,13.7-13.7V16.1c0-1.1,0.9-2,2-2h37.3c1.1,0,2,0.9,2,2
		v39.3h30.1c1.1,0,2,0.9,2,2v32.7c0,1.1-0.9,2-2,2h-30.1v53c0,17.3,14.7,24.3,30,18.9c1-0.4,2.1,0.4,2.1,1.5V200
		c0,1.3-0.9,2.4-2.1,2.7c-4,0.9-9.5,1.8-15.9,1.8c-35.5,0-59.8-12-59.8-63.6V92.1H839C837.8,92.1,836.9,91.2,836.9,90.1L836.9,90.1z
		"/>
	<path class="st0" d="M1109.5,128.7c0,42.9-30.3,77.9-80.2,77.9c-49.8,0-80.2-34.9-80.2-77.9s30.3-77.9,80.2-77.9
		C1079.2,50.8,1109.5,85.8,1109.5,128.7L1109.5,128.7z M1063.7,128.7c0-21.2-11.7-38.9-34.4-38.9S995,107.5,995,128.7
		s11.7,38.9,34.4,38.9C1052.1,167.6,1063.7,149.9,1063.7,128.7z"/>
</g>
<path class="st1" d="M102.2,256.8c6.3,0,11.4-5.1,11.4-11.4c0-6.3-5.1-11.4-11.4-11.4s-11.5,5.1-11.5,11.4
	C90.8,251.6,95.9,256.8,102.2,256.8z"/>
<path class="st1" d="M168,167.3l-64.5,6.9c-1.2,0.1-1.8-1.4-0.8-2.1l63.1-49.2c4.1-3.3,6.7-8.6,5.6-14.2c-1.1-8.6-8.2-14.2-17.1-13
	l-68.6,10c-1.2,0.2-1.9-1.4-0.9-2.1l68-51.9c13.4-10.4,14.5-30.9,2.2-42.9C143.8-2.4,125.9-2,114.7,9.2L5.2,120.7
	c-4.1,4.5-6,10.4-4.8,16.8c1.9,10.1,11.9,16.8,22,14.9l59.1-12.1c1.3-0.3,2,1.4,0.9,2.1l-65.5,41.9c-8.2,5.2-11.9,14.5-9.3,23.9
	c2.6,12.3,14.9,19.4,26.8,16.4l98-24.1c1.1-0.3,1.9,1,1.2,1.9l-15.3,18.9c-4.1,5.2,2.6,12.3,8.2,8.2l50.3-41.4
	C185.5,180.7,179.6,166.2,168,167.3L168,167.3z"/>
<path class="st0" d="M1155.4,200V62c0-1.1,0.9-2,2-2h14.4c1.1,0,2,0.9,2,2v18.6c8.9-15.5,20.6-22.9,36.6-22.9
	c20.6,0,32.9,9.4,40.9,28.6c9.2-19.2,21.8-28.6,41.5-28.6c24.3,0,45.8,13.2,45.8,57V200c0,1.1-0.9,2-2,2h-14.4c-1.1,0-2-0.9-2-2
	v-88.5c0-26-12.3-36.6-31.5-36.6s-32.6,14-32.6,39.2V200c0,1.1-0.9,2-2,2h-14.4c-1.1,0-2-0.9-2-2v-88.5c0-26-12.3-36.6-31.5-36.6
	s-32.6,14-32.6,36.9V200c0,1.1-0.9,2-2,2h-14.4C1156.2,202,1155.4,201.1,1155.4,200L1155.4,200z"/>
<path class="st0" d="M1451.9,200v-27.8c-9.2,19.8-27.2,32.1-50.4,32.1c-26.3,0-45.8-16.6-45.8-41.8c0-30.1,22-44.7,51-44.7h30.6
	c10.9,0,14-6,12.9-15.5c-1.4-12.3-10.9-28.6-35.8-28.6s-37.6,14.8-39.6,28.9c-0.2,1.1-1.2,1.8-2.3,1.6l-13.8-2.7
	c-1.1-0.2-1.8-1.2-1.6-2.3c5.6-28.4,30-41.6,56.9-41.6s56.1,11.5,56.1,63.3V200c0,1.1-0.9,2-2,2h-14.4
	C1452.8,202,1451.9,201.1,1451.9,200L1451.9,200z M1407.8,133.3c-24.1,0-33.8,12.6-33.8,27.8c0,14,9.2,27.2,27.8,27.2
	c28.3,0,48.9-20.9,50.1-55H1407.8L1407.8,133.3z"/>
<path class="st0" d="M1556.4,76c0,1.2-1.1,2.1-2.3,1.9c-26-4.4-43.5,15.7-43.5,39.9V200c0,1.1-0.9,2-2,2h-14.4c-1.1,0-2-0.9-2-2V62
	c0-1.1,0.9-2,2-2h14.4c1.1,0,2,0.9,2,2v24.9c6.6-18.6,21.8-29.2,40.7-29.2c1.1,0,2.3,0.1,3.4,0.3c1,0.1,1.7,1,1.7,2L1556.4,76
	L1556.4,76z"/>
<path class="st0" d="M1687.5,202h-19c-0.6,0-1.2-0.3-1.6-0.8l-57.2-73.4l-18.9,16.9V200c0,1.1-0.9,2-2,2h-14.4c-1.1,0-2-0.9-2-2
	V20.8c0-1.1,0.9-2,2-2h14.4c1.1,0,2,0.9,2,2v101.9l69.9-62.2c0.4-0.3,0.8-0.5,1.3-0.5h19.8c1.8,0,2.7,2.3,1.3,3.5l-59.9,52.9
	l65.9,82.4C1690,200.1,1689.1,202,1687.5,202L1687.5,202z"/>
<path class="st0" d="M1750.5,57.7c31.5,0,64.4,20.3,64.4,68.4c0,2.9-0.2,5.5-0.4,7.7c-0.1,1-0.9,1.8-2,1.8h-112.4
	c2.6,31.2,22.6,51.5,51.2,51.5c23.2,0,37.1-13.9,42.9-28.2c0.4-0.9,1.3-1.4,2.3-1.2l13.4,2.9c1.2,0.3,1.8,1.4,1.4,2.6
	c-6.2,19-25.6,41.1-60.1,41.1c-44.9,0-69.3-34.1-69.3-73.3C1682.1,87.5,1710.2,57.7,1750.5,57.7L1750.5,57.7z M1796.6,119.6
	c-2-29.2-20.6-45.8-45.5-45.8c-27.8,0-44.9,15.2-50.4,45.8C1700.7,119.6,1796.6,119.6,1796.6,119.6z"/>
<path class="st0" d="M1815.8,74.1V62c0-1.1,0.9-2,2-2h12.9c7.6,0,13.7-6.2,13.7-13.7V20.8c0-1.1,0.9-2,2-2h13.2c1.1,0,2,0.9,2,2V60
	h30.1c1.1,0,2,0.9,2,2v12.1c0,1.1-0.9,2-2,2h-30.1v83c0,27.9,16.9,29.4,29.6,26.2c1.3-0.3,2.5,0.6,2.5,1.9V200
	c0,0.9-0.6,1.7-1.5,1.9c-3.2,0.9-7.2,1.3-11.4,1.3c-27.2,0-37.5-14.9-37.5-46.1V76h-25.5C1816.7,76,1815.8,75.2,1815.8,74.1
	L1815.8,74.1z"/>
</svg>
