<?xml version="1.0" encoding="utf-8"?>
<!-- Generator: Adobe Illustrator 23.0.5, SVG Export Plug-In . SVG Version: 6.00 Build 0)  -->
<svg version="1.1" id="Layer_1" xmlns="http://www.w3.org/2000/svg" xmlns:xlink="http://www.w3.org/1999/xlink" x="0px" y="0px"
	 viewBox="0 0 50 29" style="enable-background:new 0 0 50 29;" xml:space="preserve">
<style type="text/css">
	.st0{fill:#EFECD0;}
	.st1{fill:none;}
</style>
<title></title>
<g>
	<path class="st0" d="M31.1,13.9l-5.5-5.5c-0.1-0.1-0.3-0.1-0.5,0l0,0l-1.8,1.8L20.2,7C20,7,19.7,7,19.6,7.1c-0.1,0.1-0.1,0.3,0,0.5
		l3.1,3.1l-5.2,5.2c-0.1,0.1-0.1,0.3,0,0.5l0,0l5.5,5.5c0.1,0.1,0.3,0.1,0.5,0l0,0l7.5-7.5C31.2,14.3,31.2,14,31.1,13.9L31.1,13.9z
		 M28.6,15.9h-10l4.7-4.7l1.1,1.1c0.1,0.1,0.3,0.1,0.5,0c0.1-0.1,0.1-0.3,0-0.5l-1.1-1.1l1.6-1.6l5,5L28.6,15.9z"/>
	<path class="st0" d="M31.1,15.3c-0.1-0.1-0.3-0.2-0.5-0.1l-0.1,0.1c-0.2,0.3-1.4,2.1-1.4,2.9c0,1,0.8,1.7,1.7,1.7s1.7-0.8,1.7-1.7
		C32.5,17.4,31.4,15.7,31.1,15.3z"/>
</g>
<rect class="st1" width="50" height="29"/>
</svg>
