<?xml version="1.0" encoding="utf-8"?>
<!-- Generator: Adobe Illustrator 23.0.5, SVG Export Plug-In . SVG Version: 6.00 Build 0)  -->
<svg version="1.1" id="Capa_1" xmlns="http://www.w3.org/2000/svg" xmlns:xlink="http://www.w3.org/1999/xlink" x="0px" y="0px"
	 viewBox="0 0 50 29" style="enable-background:new 0 0 50 29;" xml:space="preserve">
<style type="text/css">
	.st0{fill:#EFECD0;}
	.st1{fill:none;}
</style>
<g>
	<g>
		<g>
			<path class="st0" d="M32.2,11.4l-4.1-4.1c-0.4-0.4-1.1-0.4-1.4,0l-1.4,1.4C25.1,8.8,25,9.1,25,9.4s0.1,0.5,0.3,0.7l4.1,4.1
				c0.2,0.2,0.5,0.3,0.7,0.3s0.5-0.1,0.7-0.3l1.4-1.4c0.2-0.2,0.3-0.5,0.3-0.7S32.3,11.6,32.2,11.4z"/>
			<path class="st0" d="M25,10.8c-0.1-0.1-0.3-0.1-0.4-0.1c-1,0.6-2.5,1.4-4.4,1.4c-0.1,0-0.3,0.1-0.3,0.3l-2.4,8.4
				c-0.1,0.1,0,0.3,0.1,0.4s0.3,0.1,0.4-0.1l4-4.3c0.1-0.1,0.2-0.3,0.2-0.5c-0.1-0.4,0.1-0.8,0.5-1s0.7-0.2,1,0s0.4,0.5,0.5,0.7
				c0,0.3-0.1,0.6-0.3,0.8c-0.2,0.2-0.5,0.3-0.8,0.3c-0.2,0-0.4,0.1-0.5,0.2l-4.3,4c-0.1,0.1-0.1,0.3-0.1,0.4
				c0.1,0.1,0.2,0.2,0.3,0.2h0.1l8.4-2.4c0.1-0.1,0.3-0.2,0.3-0.3c0-1.8,0.7-3.3,1.4-4.4c0.1-0.1,0.1-0.3-0.1-0.4L25,10.8z"/>
		</g>
	</g>
</g>
<rect class="st1" width="50" height="29"/>
</svg>
