<?xml version="1.0" encoding="utf-8"?>
<!-- Generator: Adobe Illustrator 23.0.5, SVG Export Plug-In . SVG Version: 6.00 Build 0)  -->
<svg version="1.1" id="Layer_1" xmlns="http://www.w3.org/2000/svg" xmlns:xlink="http://www.w3.org/1999/xlink" x="0px" y="0px"
	 viewBox="0 0 50 29" style="enable-background:new 0 0 50 29;" xml:space="preserve">
<style type="text/css">
	.st0{fill:#EFECD0;}
	.st1{fill:none;}
</style>
<path class="st0" d="M32.8,12.7c-0.1-0.3-0.4-0.5-0.7-0.6l-4.5-0.4l-1.8-4.2C25.6,7.2,25.3,7,25,7c-0.3,0-0.6,0.2-0.8,0.5l-1.8,4.2
	l-4.5,0.4c-0.3,0-0.6,0.3-0.7,0.6c-0.1,0.3,0,0.7,0.2,0.9l3.4,3l-1,4.4c-0.1,0.3,0.1,0.7,0.3,0.9c0.1,0.1,0.3,0.2,0.5,0.2
	c0.1,0,0.3,0,0.4-0.1l3.9-2.3l3.9,2.3c0.3,0.2,0.6,0.2,0.9,0c0.3-0.2,0.4-0.5,0.3-0.9l-1-4.4l3.4-3C32.8,13.3,32.9,13,32.8,12.7z"/>
<rect class="st1" width="50" height="29"/>
</svg>
