<?xml version="1.0" encoding="utf-8"?>
<!-- Generator: Adobe Illustrator 23.0.5, SVG Export Plug-In . SVG Version: 6.00 Build 0)  -->
<svg version="1.1" id="Capa_1" xmlns="http://www.w3.org/2000/svg" xmlns:xlink="http://www.w3.org/1999/xlink" x="0px" y="0px"
	 viewBox="0 0 50 29" style="enable-background:new 0 0 50 29;" xml:space="preserve">
<style type="text/css">
	.st0{fill:#EFECD0;}
	.st1{fill:none;}
</style>
<path class="st0" d="M33.3,21.9l-4.8-4.8c2.2-2.7,2-6.6-0.4-9.1c-2.6-2.6-6.9-2.6-9.6,0s-2.6,6.9,0,9.6c2.5,2.5,6.4,2.6,9.1,0.4
	l4.8,4.8c0.3,0.3,0.7,0.3,0.9,0C33.6,22.5,33.6,22.1,33.3,21.9z M19.4,8.9c0.6-0.6,1.4-1.1,2.2-1.3c-1.7,0.5-3,1.9-3.6,3.6
	C18.3,10.3,18.8,9.6,19.4,8.9z M19.4,16.6c-0.6-0.6-1.1-1.4-1.3-2.2c0.5,1.7,1.9,3,3.6,3.6C20.8,17.7,20.1,17.3,19.4,16.6z M23.9,16
	c0,0.4-0.3,0.7-0.7,0.7s-0.7-0.3-0.7-0.7v-2.6H20c-0.4,0-0.7-0.3-0.7-0.7c0-0.4,0.3-0.7,0.7-0.7h2.6V9.5c0-0.4,0.3-0.7,0.7-0.7
	s0.7,0.3,0.7,0.7v2.6h2.6c0.4,0,0.7,0.3,0.7,0.7s-0.3,0.7-0.7,0.7h-2.6V16z M27.1,16.6c-0.6,0.6-1.4,1.1-2.2,1.3
	c1.7-0.5,3-1.9,3.6-3.6C28.2,15.2,27.8,16,27.1,16.6z M24.9,7.6c0.8,0.3,1.6,0.7,2.2,1.3c0.6,0.6,1.1,1.4,1.3,2.2
	C27.9,9.4,26.6,8.1,24.9,7.6z"/>
<rect class="st1" width="50" height="29"/>
</svg>
