<?xml version="1.0" encoding="utf-8"?>
<!-- Generator: Adobe Illustrator 23.0.5, SVG Export Plug-In . SVG Version: 6.00 Build 0)  -->
<svg version="1.1" id="Capa_1" xmlns="http://www.w3.org/2000/svg" xmlns:xlink="http://www.w3.org/1999/xlink" x="0px" y="0px"
	 viewBox="0 0 50 29" style="enable-background:new 0 0 50 29;" xml:space="preserve">
<style type="text/css">
	.st0{fill:#EFECD0;}
	.st1{fill:none;}
</style>
<path class="st0" d="M33.2,22.5l-5.2-5.4c1.3-1.2,2.1-3,2.1-4.9c0-3.7-3-6.8-6.8-6.8s-6.8,3-6.8,6.8s3,6.8,6.8,6.8
	c1.4,0,2.7-0.4,3.8-1.1l5.2,5.4c0.1,0.1,0.3,0.2,0.4,0.2c0.2,0,0.3-0.1,0.4-0.2C33.5,23.1,33.5,22.7,33.2,22.5z M23.4,6.7L23.4,6.7
	C23.4,6.7,23.4,6.7,23.4,6.7L23.4,6.7z M23.4,17.8L23.4,17.8L23.4,17.8C23.4,17.8,23.4,17.8,23.4,17.8z M26.4,12.9h-6.1
	c-0.3,0-0.6-0.3-0.6-0.6c0-0.3,0.3-0.6,0.6-0.6h6.1c0.3,0,0.6,0.3,0.6,0.6C27,12.6,26.7,12.9,26.4,12.9z"/>
<rect class="st1" width="50" height="29"/>
</svg>
